{"title":"King.Of.The.Hill.aka.El.rey.de.la.montaÃƒÂ±a.2007.DVDRiP.XViD.OPTI","uid":5849162,"size":743879841,"categoryP":"video","categoryS":"movies","magnet":"?xt=urn:btih:747aa4d25cccfdf759ffec94a90b3959525b31fe&amp;dn=King.Of.The.Hill.aka.El.rey.de.la.monta%C3%83%C2%B1a.2007.DVDRiP.XViD.OPTI&amp;tr=udp%3A%2F%2Ftracker.openbittorrent.com%3A80&amp;tr=udp%3A%2F%2Fopen.demonii.com%3A1337&amp;tr=udp%3A%2F%2Ftracker.coppersurfer.tk%3A6969&amp;tr=udp%3A%2F%2Fexodus.desync.com%3A6969","seeders":0,"leechers":0,"uploader":"Zen_Bud","files":-1,"time":1285316276,"description":"\n*********** King.Of.The.Hill.aka.El.rey.de.la.montaÃƒÂ±a.2007.avi********\n\nFormat                           : AVI\nFormat/Info                      : Audio Video Interleave\nFile size                        : 705 MiB\nDuration                         : 1h 24mn\nOverall bit rate                 : 1 163 Kbps\n\nVideo\n\nFormat                           : MPEG-4 Visual\nCodec ID/Hint                    : XviD\nDuration                         : 1h 24mn\nBit rate                         : 1 022 Kbps\nWidth                            : 720 pixels\nHeight                           : 576 pixels\nDisplay aspect ratio             : 16:9\nFrame rate                       : 25.000 fps\nStream size                      : 620 MiB (88%)\nWriting library                  : XviD 1.1.2 (UTC 2006-11-01)\n\nAudio\n\nFormat                           : MPEG Audio\nCodec ID/Hint                    : MP3\nDuration                         : 1h 24mn\nBit rate                         : 128 Kbps\nChannel(s)                       : 2 channels\nSampling rate                    : 48.0 KHz\nStream size                      : 77.6 MiB (11%)\nWriting library                  : LAME3.98\nLanguage                         : Spanish\n\nText #1\nLanguage                         : Swedish\n\nText #2\nLanguage                         : Norwegian\n\nText #3\nLanguage                         : Danish\n\nText #4\nLanguage                         : Finnish","torrent":{"xt":"urn:btih:747aa4d25cccfdf759ffec94a90b3959525b31fe","amp;dn":"King.Of.The.Hill.aka.El.rey.de.la.monta%C3%83%C2%B1a.2007.DVDRiP.XViD.OPTI","amp;tr":["udp%3A%2F%2Ftracker.openbittorrent.com%3A80","udp%3A%2F%2Fopen.demonii.com%3A1337","udp%3A%2F%2Ftracker.coppersurfer.tk%3A6969","udp%3A%2F%2Fexodus.desync.com%3A6969"],"infoHash":"747aa4d25cccfdf759ffec94a90b3959525b31fe","infoHashBuffer":{"type":"Buffer","data":[116,122,164,210,92,204,253,247,89,255,236,148,169,11,57,89,82,91,49,254]},"announce":[],"urlList":[]}}